<svg width="20" height="20" viewBox="0 0 20 20" fill="none" xmlns="http://www.w3.org/2000/svg">
<path d="M6.11584 8.40416L10 4.52L13.886 8.40584L16.146 6.14584L10 0L3.856 6.144L6.11592 8.404M0 10L2.26008 7.7396L4.52 9.99952L2.25992 12.2596L0 10ZM6.11608 11.5958L10 15.48L13.8859 11.5942L16.1471 13.853L16.146 13.8542L10 20L3.856 13.856L3.8528 13.8528L6.11608 11.5958ZM15.48 10.001L17.7401 7.74088L20 10.0008L17.74 12.2609L15.48 10.001Z" fill="#F3BA2F"/>
<path d="M12.2922 9.99933H12.2932L10 7.70605L8.30509 9.40053L8.11037 9.59533L7.70877 9.99702L7.70557 10.0001L7.70877 10.0034L10 12.295L12.2933 10.0017L12.2944 10.0005L12.2924 9.99933" fill="#F3BA2F"/>
</svg>
