<svg width="16" height="14" viewBox="0 0 16 14" fill="none" xmlns="http://www.w3.org/2000/svg">
<path d="M8.70176 11.844L8.70248 11.8433C10.5537 10.18 12.0495 8.83493 13.0885 7.57629C14.1219 6.32444 14.6499 5.22006 14.6499 4.04685C14.6499 2.1453 13.1478 0.650391 11.2174 0.650391C10.123 0.650391 9.06607 1.15762 8.3791 1.95694L7.9999 2.39816L7.62071 1.95694C6.93374 1.15762 5.87682 0.650391 4.7824 0.650391C2.852 0.650391 1.3499 2.1453 1.3499 4.04685C1.3499 5.22007 1.87787 6.32447 2.91138 7.57731C3.95031 8.83672 5.44581 10.1833 7.29673 11.8499L7.29772 11.8508L7.99863 12.4782L8.70176 11.844Z" stroke="white"/>
</svg>
