<svg xmlns="http://www.w3.org/2000/svg" width="19.989" height="20.545" viewBox="0 0 19.989 20.545">
  <g id="settings" transform="translate(0 0)">
    <path id="Path_1" data-name="Path 1" d="M10.622,20.545H9.367a1.868,1.868,0,0,1-1.84-1.891v-.436a7.95,7.95,0,0,1-1.253-.535l-.3.309a1.805,1.805,0,0,1-2.6,0l-.887-.911a1.929,1.929,0,0,1,0-2.675l.3-.309a8.425,8.425,0,0,1-.52-1.288H1.84A1.868,1.868,0,0,1,0,10.917V9.628A1.868,1.868,0,0,1,1.84,7.737h.424a8.427,8.427,0,0,1,.52-1.288l-.3-.309a1.929,1.929,0,0,1,0-2.675l.887-.911a1.8,1.8,0,0,1,2.6,0l.3.309a7.957,7.957,0,0,1,1.253-.535V1.891A1.868,1.868,0,0,1,9.367,0h1.255a1.868,1.868,0,0,1,1.84,1.891v.436a7.95,7.95,0,0,1,1.253.535l.3-.309a1.805,1.805,0,0,1,2.6,0l.887.911a1.929,1.929,0,0,1,0,2.675l-.3.309a8.425,8.425,0,0,1,.52,1.288h.424a1.868,1.868,0,0,1,1.84,1.891v1.289a1.868,1.868,0,0,1-1.84,1.891h-.424A8.426,8.426,0,0,1,17.2,14.1l.3.309a1.929,1.929,0,0,1,0,2.675l-.887.911a1.8,1.8,0,0,1-2.6,0l-.3-.309a7.957,7.957,0,0,1-1.253.535v.436A1.868,1.868,0,0,1,10.622,20.545ZM6.47,16.419a6.8,6.8,0,0,0,1.789.763.6.6,0,0,1,.439.583v.889a.679.679,0,0,0,.669.687h1.255a.679.679,0,0,0,.669-.687v-.889a.6.6,0,0,1,.439-.583,6.8,6.8,0,0,0,1.789-.763.574.574,0,0,1,.712.092l.612.63a.656.656,0,0,0,.946,0l.887-.912a.7.7,0,0,0,0-.972l-.613-.63a.615.615,0,0,1-.09-.732,7.2,7.2,0,0,0,.743-1.839.589.589,0,0,1,.567-.451h.865a.679.679,0,0,0,.669-.687V9.628a.679.679,0,0,0-.669-.687h-.865a.589.589,0,0,1-.567-.451,7.205,7.205,0,0,0-.743-1.839.615.615,0,0,1,.09-.732l.613-.63a.7.7,0,0,0,0-.972L15.79,3.4a.656.656,0,0,0-.946,0l-.613.63a.574.574,0,0,1-.712.092,6.8,6.8,0,0,0-1.789-.763.6.6,0,0,1-.439-.583V1.891a.679.679,0,0,0-.669-.687H9.367a.679.679,0,0,0-.669.687V2.78a.6.6,0,0,1-.439.583,6.8,6.8,0,0,0-1.789.763.574.574,0,0,1-.712-.092L5.145,3.4a.656.656,0,0,0-.946,0l-.887.912a.7.7,0,0,0,0,.972l.613.63a.615.615,0,0,1,.09.732,7.2,7.2,0,0,0-.743,1.839A.589.589,0,0,1,2.7,8.94H1.84a.679.679,0,0,0-.669.688v1.289a.679.679,0,0,0,.669.687H2.7a.589.589,0,0,1,.567.451A7.205,7.205,0,0,0,4.015,13.9a.615.615,0,0,1-.09.732l-.613.63a.7.7,0,0,0,0,.972l.887.912a.656.656,0,0,0,.946,0l.613-.63A.577.577,0,0,1,6.47,16.419Z" transform="translate(0 0)" fill="#fff"/>
    <path id="Path_2" data-name="Path 2" d="M148.64,152.679a4.04,4.04,0,1,1,4.04-4.04A4.044,4.044,0,0,1,148.64,152.679Zm0-6.991a2.952,2.952,0,1,0,2.952,2.952A2.955,2.955,0,0,0,148.64,145.688Z" transform="translate(-138.645 -138.367)" fill="#fff"/>
  </g>
</svg>
