<svg xmlns="http://www.w3.org/2000/svg" width="16.651" height="16.11" viewBox="0 0 16.651 16.11">
  <g id="clear-night_1_" data-name="clear-night (1)" transform="translate(0 -4.98)">
    <g id="Group_16" data-name="Group 16" transform="translate(0 4.98)">
      <g id="Group_13" data-name="Group 13">
        <path id="Path_42" data-name="Path 42" d="M14.144,17.58a7.412,7.412,0,0,1-2.4.4A7.781,7.781,0,0,1,4.1,10.087,7.979,7.979,0,0,1,5.684,5.276a.189.189,0,0,0,0-.219.174.174,0,0,0-.2-.068A8.225,8.225,0,0,0,0,12.83a8.143,8.143,0,0,0,8,8.26,7.864,7.864,0,0,0,6.339-3.224.187.187,0,0,0,0-.218A.175.175,0,0,0,14.144,17.58Z" transform="translate(0 -4.98)" fill="#c2c4ca"/>
      </g>
      <g id="Group_14" data-name="Group 14" transform="translate(8.899 1.21)">
        <path id="Path_43" data-name="Path 43" d="M210.958,29.66l1.59-1.156,1.59,1.156-.607-1.869,1.59-1.155h-1.965l-.607-1.869-.607,1.869h-1.966l1.59,1.155Z" transform="translate(-209.976 -24.767)" fill="#c2c4ca"/>
      </g>
      <g id="Group_15" data-name="Group 15" transform="translate(14.545 4.212)">
        <path id="Path_44" data-name="Path 44" d="M323.292,99.169h-.8l-.249-.765-.249.765h-.8l.65.473-.248.765.651-.473.651.473-.248-.765Z" transform="translate(-321.186 -98.404)" fill="#c2c4ca"/>
      </g>
    </g>
  </g>
</svg>
