<svg xmlns="http://www.w3.org/2000/svg" width="12.047" height="11.951" viewBox="0 0 12.047 11.951">
  <g id="arrows" transform="translate(-14.509 -23.664) rotate(48)">
    <g id="Group_1" data-name="Group 1" transform="translate(31.843 0)">
      <path id="Path_3" data-name="Path 3" d="M39.562,3.531a.655.655,0,0,0-.056-.067L36.233.192a.654.654,0,0,0-.926,0h0L32.034,3.464a.655.655,0,0,0,.065.982.677.677,0,0,0,.867-.095L34.78,2.545a1.309,1.309,0,0,0,.239-.327l.088-.2V8.448a.677.677,0,0,0,.55.69.654.654,0,0,0,.759-.654V2.031l.065.141a1.309,1.309,0,0,0,.262.37l1.81,1.81a.677.677,0,0,0,.867.095A.654.654,0,0,0,39.562,3.531Z" transform="translate(-31.843 0)" fill="#c3c5cb"/>
    </g>
  </g>
</svg>
