<?xml version="1.0" encoding="utf-8"?>
<!-- Generator: Adobe Illustrator 23.0.5, SVG Export Plug-In . SVG Version: 6.00 Build 0)  -->
<!DOCTYPE svg PUBLIC "-//W3C//DTD SVG 1.1//EN" "http://www.w3.org/Graphics/SVG/1.1/DTD/svg11.dtd" [
	<!ENTITY ns_extend "http://ns.adobe.com/Extensibility/1.0/">
	<!ENTITY ns_ai "http://ns.adobe.com/AdobeIllustrator/10.0/">
	<!ENTITY ns_graphs "http://ns.adobe.com/Graphs/1.0/">
	<!ENTITY ns_vars "http://ns.adobe.com/Variables/1.0/">
	<!ENTITY ns_imrep "http://ns.adobe.com/ImageReplacement/1.0/">
	<!ENTITY ns_sfw "http://ns.adobe.com/SaveForWeb/1.0/">
	<!ENTITY ns_custom "http://ns.adobe.com/GenericCustomNamespace/1.0/">
	<!ENTITY ns_adobe_xpath "http://ns.adobe.com/XPath/1.0/">
]>
<svg version="1.1" id="Layer_1" xmlns:x="&ns_extend;" xmlns:i="&ns_ai;" xmlns:graph="&ns_graphs;"
	 xmlns="http://www.w3.org/2000/svg" xmlns:xlink="http://www.w3.org/1999/xlink" x="0px" y="0px" viewBox="0 0 12 12"
	 style="enable-background:new 0 0 12 12;" xml:space="preserve">
<metadata>
	<sfw  xmlns="&ns_sfw;">
		<slices></slices>
		<sliceSourceBounds  bottomLeftOrigin="true" height="6.8" width="7.1" x="2.5" y="2.7"></sliceSourceBounds>
	</sfw>
</metadata>
<g id="arrows" transform="translate(-14.509 -23.664) rotate(48)">
	<g id="Group_1" transform="translate(31.843 0)">
		<path id="Path_3" d="M7.7,3.5C7.7,3.5,7.7,3.5,7.7,3.5L4.4,0.2c-0.3-0.3-0.7-0.3-0.9,0c0,0,0,0,0,0l0,0L0.2,3.5
			c-0.3,0.3-0.3,0.7,0,0.9c0,0,0,0,0.1,0.1c0.3,0.2,0.6,0.1,0.9-0.1l1.8-1.8C3,2.4,3.1,2.3,3.2,2.2L3.3,2l0,6.4
			c0,0.3,0.2,0.6,0.5,0.7C4.2,9.2,4.5,9,4.6,8.6c0,0,0-0.1,0-0.1l0-6.5l0.1,0.1c0.1,0.1,0.2,0.3,0.3,0.4l1.8,1.8
			c0.2,0.2,0.6,0.3,0.9,0.1C7.9,4.2,7.9,3.8,7.7,3.5C7.7,3.5,7.7,3.5,7.7,3.5z"/>
	</g>
</g>
</svg>
