<svg width="39" height="34" viewBox="0 0 39 34" fill="none" xmlns="http://www.w3.org/2000/svg">
<path d="M36.9474 28.3333V30.2222C36.9474 32.3 35.1 34 32.8421 34H4.10526C1.82684 34 0 32.3 0 30.2222V3.77778C0 1.7 1.82684 0 4.10526 0H32.8421C35.1 0 36.9474 1.7 36.9474 3.77778V5.66667H18.4737C16.1953 5.66667 14.3684 7.36667 14.3684 9.44444V24.5556C14.3684 26.6333 16.1953 28.3333 18.4737 28.3333H36.9474ZM18.4737 24.5556H39V9.44444H18.4737V24.5556ZM26.6842 19.8333C24.9805 19.8333 23.6053 18.5678 23.6053 17C23.6053 15.4322 24.9805 14.1667 26.6842 14.1667C28.3879 14.1667 29.7632 15.4322 29.7632 17C29.7632 18.5678 28.3879 19.8333 26.6842 19.8333Z" fill="#E3D99B"/>
</svg>
